# Exported from ProBuilder
# http://www.procore3d.com/probuilder
# 6/15/2019 1:00:23 AM

mtllib ./Prism.mtl
o Prism

g Prism
v 0 0 0
v -1 0 0
v -0.5 1 0
v -1 0 0
v -1 0 1
v -0.5 1 0
v -0.5 1 1
v -1 0 1
v 0 0 1
v -0.5 1 1
v 0 0 1
v 0 0 0
v -0.5 1 1
v -0.5 1 0
v 0 0 0
v -1 0 0
v 0 0 1
v -1 0 1

vn 0 0 -1
vn 0 0 -1
vn 0 0 -1
vn -0.8944272 0.4472136 0
vn -0.8944272 0.4472136 0
vn -0.8944272 0.4472136 0
vn -0.8944272 0.4472136 0
vn 0 0 1
vn 0 0 1
vn 0 0 1
vn 0.8944272 0.4472136 0
vn 0.8944272 0.4472136 0
vn 0.8944272 0.4472136 0
vn 0.8944272 0.4472136 0
vn 0 -1 0
vn 0 -1 0
vn 0 -1 0
vn 0 -1 0

vt 0 0
vt 1 0
vt 0.5 1
vt 0 -0.4472136
vt 1 -0.4472136
vt 0 0.6708204
vt 1 0.6708204
vt -1 0
vt 0 0
vt -0.5 1
vt -1 0
vt 0 0
vt -1 1.118034
vt 0 1.118034
vt 0 0
vt -1 0
vt 0 1
vt -1 1

g Prism_0
usemtl Default_Prototype
f 7/7/7 6/6/6 4/4/4 5/5/5
f 14/14/14 13/13/13 11/11/11 12/12/12
f 17/17/17 18/18/18 16/16/16 15/15/15

g Prism_1
usemtl Default_Prototype
f 1/1/1 2/2/2 3/3/3
f 8/8/8 9/9/9 10/10/10

